<svg xmlns="http://www.w3.org/2000/svg" width="58" height="49" viewBox="0 0 58 49">
  <g id="Group_355" data-name="Group 355" transform="translate(-146 -28)">
    <circle id="Ellipse_93" data-name="Ellipse 93" cx="3.5" cy="3.5" r="3.5" transform="translate(146 28)" fill="#fff"/>
    <circle id="Ellipse_93-2" data-name="Ellipse 93" cx="3.5" cy="3.5" r="3.5" transform="translate(163 28)" fill="#fff"/>
    <circle id="Ellipse_93-3" data-name="Ellipse 93" cx="3.5" cy="3.5" r="3.5" transform="translate(180 28)" fill="#fff"/>
    <circle id="Ellipse_93-4" data-name="Ellipse 93" cx="3.5" cy="3.5" r="3.5" transform="translate(197 28)" fill="#fff"/>
    <circle id="Ellipse_93-5" data-name="Ellipse 93" cx="3.5" cy="3.5" r="3.5" transform="translate(146 42)" fill="#fff"/>
    <circle id="Ellipse_93-6" data-name="Ellipse 93" cx="3.5" cy="3.5" r="3.5" transform="translate(163 42)" fill="#fff"/>
    <circle id="Ellipse_93-7" data-name="Ellipse 93" cx="3.5" cy="3.5" r="3.5" transform="translate(180 42)" fill="#fff"/>
    <circle id="Ellipse_93-8" data-name="Ellipse 93" cx="3.5" cy="3.5" r="3.5" transform="translate(197 42)" fill="#fff"/>
    <circle id="Ellipse_93-9" data-name="Ellipse 93" cx="3.5" cy="3.5" r="3.5" transform="translate(146 56)" fill="#fff"/>
    <circle id="Ellipse_93-10" data-name="Ellipse 93" cx="3.5" cy="3.5" r="3.5" transform="translate(163 56)" fill="#fff"/>
    <circle id="Ellipse_93-11" data-name="Ellipse 93" cx="3.5" cy="3.5" r="3.5" transform="translate(180 56)" fill="#fff"/>
    <circle id="Ellipse_93-12" data-name="Ellipse 93" cx="3.5" cy="3.5" r="3.5" transform="translate(197 56)" fill="#fff"/>
    <circle id="Ellipse_93-13" data-name="Ellipse 93" cx="3.5" cy="3.5" r="3.5" transform="translate(146 70)" fill="#fff"/>
    <circle id="Ellipse_93-14" data-name="Ellipse 93" cx="3.5" cy="3.5" r="3.5" transform="translate(163 70)" fill="#fff"/>
    <circle id="Ellipse_93-15" data-name="Ellipse 93" cx="3.5" cy="3.5" r="3.5" transform="translate(180 70)" fill="#fff"/>
    <circle id="Ellipse_93-16" data-name="Ellipse 93" cx="3.5" cy="3.5" r="3.5" transform="translate(197 70)" fill="#fff"/>
  </g>
</svg>
