<svg xmlns="http://www.w3.org/2000/svg" width="16.297" height="16.296" viewBox="0 0 16.297 16.296">
  <g id="Group_354" data-name="Group 354" transform="translate(-91 -71)">
    <path id="Path_1656" data-name="Path 1656" d="M20.387,1.773H.886A.889.889,0,0,1,0,.886H0A.889.889,0,0,1,.886,0h19.5a.889.889,0,0,1,.886.886h0A.889.889,0,0,1,20.387,1.773Z" transform="translate(91 86.043) rotate(-45)" fill="#fff"/>
    <path id="Path_1657" data-name="Path 1657" d="M20.387,1.773H.886A.889.889,0,0,1,0,.886H0A.889.889,0,0,1,.886,0h19.5a.889.889,0,0,1,.886.886h0A.889.889,0,0,1,20.387,1.773Z" transform="translate(92.254 71) rotate(45)" fill="#fff"/>
  </g>
</svg>
