<svg xmlns="http://www.w3.org/2000/svg" width="21.274" height="11.772" viewBox="0 0 21.274 11.772">
  <g id="Group_354" data-name="Group 354" transform="translate(-88.512 -78.262)">
    <path id="Path_1656" data-name="Path 1656" d="M20.387,1.773H.886A.889.889,0,0,1,0,.886H0A.889.889,0,0,1,.886,0h19.5a.889.889,0,0,1,.886.886h0A.889.889,0,0,1,20.387,1.773Z" transform="translate(88.512 78.262)"/>
    <path id="Path_1657" data-name="Path 1657" d="M20.387,1.773H.886A.889.889,0,0,1,0,.886H0A.889.889,0,0,1,.886,0h19.5a.889.889,0,0,1,.886.886h0A.889.889,0,0,1,20.387,1.773Z" transform="translate(88.512 83.262)"/>
    <path id="Path_1662" data-name="Path 1662" d="M20.387,1.773H.886A.889.889,0,0,1,0,.886H0A.889.889,0,0,1,.886,0h19.5a.889.889,0,0,1,.886.886h0A.889.889,0,0,1,20.387,1.773Z" transform="translate(88.512 88.262)"/>
  </g>
</svg>
