<svg xmlns="http://www.w3.org/2000/svg" width="68.367" height="39.067" viewBox="0 0 68.367 39.067">
  <g id="Icon_ionic-ios-videocam" data-name="Icon ionic-ios-videocam" transform="translate(-2.25 -9)">
    <path id="Path_1663" data-name="Path 1663" d="M39.9,10.8a2.607,2.607,0,0,0-1.419.412l-13.2,8.332a1.306,1.306,0,0,0-.61,1.1v11.6a1.306,1.306,0,0,0,.61,1.1l13.2,8.332a2.743,2.743,0,0,0,1.419.412H43.07a1.3,1.3,0,0,0,1.312-1.3V12.1a1.309,1.309,0,0,0-1.312-1.3Z" transform="translate(26.235 2.107)"/>
    <path id="Path_1664" data-name="Path 1664" d="M39.1,48.067h-29A7.884,7.884,0,0,1,2.25,40.223V16.844A7.871,7.871,0,0,1,10.094,9h29a7.871,7.871,0,0,1,7.844,7.844V40.208A7.851,7.851,0,0,1,39.1,48.067Z" transform="translate(0 0)"/>
  </g>
</svg>
